<svg width="20" height="15" viewBox="0 0 20 15" fill="none" xmlns="http://www.w3.org/2000/svg">
<path d="M16.9569 1.26729C19.2149 4.53629 20.3309 8.22329 19.9139 12.4673C19.9134 12.4764 19.9107 12.4853 19.9062 12.4933C19.9017 12.5013 19.8954 12.5081 19.8879 12.5133C18.3728 13.6178 16.6815 14.4577 14.8859 14.9973C14.8732 15.0003 14.86 14.9998 14.8476 14.9957C14.8353 14.9917 14.8243 14.9843 14.8159 14.9743C14.4356 14.4553 14.0943 13.9088 13.7949 13.3393C13.791 13.3314 13.7887 13.3228 13.7883 13.314C13.7879 13.3052 13.7894 13.2964 13.7926 13.2883C13.7958 13.2801 13.8007 13.2726 13.8069 13.2664C13.8132 13.2602 13.8207 13.2554 13.8289 13.2523C14.3684 13.0526 14.8902 12.8081 15.3889 12.5213C15.3979 12.5161 15.4055 12.5087 15.4109 12.4998C15.4164 12.4909 15.4196 12.4808 15.4201 12.4704C15.4207 12.46 15.4187 12.4496 15.4143 12.4402C15.4099 12.4307 15.4032 12.4225 15.3949 12.4163C15.2896 12.3388 15.1862 12.2588 15.0849 12.1763C15.0758 12.1688 15.0647 12.1641 15.0529 12.1628C15.0412 12.1616 15.0294 12.1638 15.0189 12.1693C11.7839 13.6393 8.24089 13.6393 4.96789 12.1693C4.95745 12.1642 4.94574 12.1622 4.9342 12.1636C4.92266 12.1651 4.91178 12.1698 4.90289 12.1773C4.80222 12.2593 4.69889 12.3393 4.59289 12.4173C4.58457 12.4235 4.57793 12.4317 4.57359 12.4411C4.56925 12.4505 4.56734 12.4609 4.56804 12.4712C4.56873 12.4816 4.57201 12.4916 4.57758 12.5003C4.58314 12.5091 4.59081 12.5163 4.59989 12.5213C5.09995 12.8057 5.62155 13.0505 6.15989 13.2533C6.16808 13.2563 6.17555 13.261 6.18179 13.2671C6.18804 13.2732 6.19293 13.2806 6.19614 13.2887C6.19935 13.2968 6.20081 13.3055 6.20042 13.3142C6.20003 13.323 6.19781 13.3315 6.19389 13.3393C5.89916 13.9118 5.55766 14.459 5.17289 14.9753C5.1644 14.9851 5.15336 14.9923 5.141 14.9962C5.12864 15.0001 5.11545 15.0005 5.10289 14.9973C3.31074 14.4551 1.62254 13.6154 0.10889 12.5133C0.0945464 12.5019 0.0852141 12.4854 0.0828896 12.4673C-0.26611 8.79529 0.44389 5.07729 3.03689 1.26729C3.04321 1.25671 3.05264 1.24833 3.06389 1.24329C4.33989 0.667294 5.70589 0.243294 7.13389 0.00129404C7.14658 -0.000206722 7.15944 0.00179587 7.17108 0.00708428C7.18271 0.0123727 7.19268 0.0207453 7.19989 0.0312943C7.37689 0.339294 7.57889 0.734294 7.71489 1.05629C9.23051 0.830293 10.7713 0.830293 12.2869 1.05629C12.4239 0.740294 12.6189 0.339294 12.7939 0.0322942C12.7998 0.0204117 12.8095 0.0108252 12.8214 0.00503483C12.8334 -0.000755503 12.8469 -0.00242288 12.8599 0.000294116C14.2899 0.243294 15.6559 0.667294 16.9299 1.24229C16.9416 1.24665 16.9512 1.25521 16.9569 1.26629M8.48089 8.24729C8.49589 7.16229 7.69189 6.26429 6.68289 6.26429C5.68289 6.26429 4.88589 7.15429 4.88589 8.24729C4.88589 9.34029 5.69789 10.2313 6.68289 10.2313C7.68389 10.2313 8.48089 9.34129 8.48089 8.24729ZM15.1259 8.24729C15.1419 7.16229 14.3379 6.26429 13.3289 6.26429C12.3279 6.26429 11.5309 7.15429 11.5309 8.24729C11.5309 9.34029 12.3429 10.2313 13.3289 10.2313C14.3379 10.2313 15.1259 9.34129 15.1259 8.24729Z" fill="#4A4A4A"/>
</svg>
