<svg width="500" height="500" viewBox="0 0 500 500" fill="none" xmlns="http://www.w3.org/2000/svg">
<rect width="500" height="500" fill="#084D3E"/>
<path d="M149.167 424.648C118.322 406.84 92.744 381.181 75.0336 350.281C57.3231 319.38 48.1121 284.34 48.3373 248.725C48.5625 213.11 58.2158 178.189 76.3156 147.515C94.4153 116.841 120.316 91.5072 151.383 74.0906L165.168 98.6803C138.444 113.662 116.164 135.455 100.594 161.841C85.0246 188.227 76.7207 218.266 76.527 248.903C76.3333 279.54 84.2567 309.682 99.4915 336.263C114.726 362.844 136.729 384.916 163.262 400.235L149.167 424.648Z" fill="white"/>
<path d="M350.833 424.648C381.678 406.84 407.256 381.181 424.966 350.281C442.677 319.38 451.888 284.34 451.663 248.725C451.438 213.11 441.784 178.189 423.684 147.515C405.585 116.841 379.684 91.5072 348.617 74.0906L334.832 98.6803C361.556 113.662 383.836 135.455 399.406 161.841C414.975 188.227 423.279 218.266 423.473 248.903C423.667 279.54 415.743 309.682 400.509 336.263C385.274 362.844 363.271 384.916 336.738 400.235L350.833 424.648Z" fill="white"/>
<path d="M189.074 284.722H284.815C289.621 284.722 293.519 280.837 293.519 276.041C293.519 271.248 289.621 267.361 284.815 267.361H215.186C191.151 267.361 171.667 247.93 171.667 223.958C171.667 199.988 191.151 180.556 215.186 180.556H232.593V145.833H267.408V180.556H310.926V215.277H215.186C210.378 215.277 206.481 219.164 206.481 223.958C206.481 228.753 210.378 232.638 215.186 232.638H284.815C308.849 232.638 328.333 252.071 328.333 276.041C328.333 300.014 308.849 319.444 284.815 319.444H267.408V354.167H232.593V319.444H189.074V284.722Z" fill="white"/>
</svg>
