<svg width="13" height="13" viewBox="0 0 13 13" fill="none" xmlns="http://www.w3.org/2000/svg">
<path d="M2.875 8.10742H2.5C1.66875 8.10742 1 7.43867 1 6.60742V2.10742C1 1.27617 1.66875 0.607422 2.5 0.607422H7C7.83125 0.607422 8.5 1.27617 8.5 2.10742V2.48242M6.25 4.35742H10.75C11.1478 4.35742 11.5294 4.51546 11.8107 4.79676C12.092 5.07807 12.25 5.4596 12.25 5.85742V10.3574C12.25 10.7552 12.092 11.1368 11.8107 11.4181C11.5294 11.6994 11.1478 11.8574 10.75 11.8574H6.25C5.85218 11.8574 5.47064 11.6994 5.18934 11.4181C4.90804 11.1368 4.75 10.7552 4.75 10.3574V5.85742C4.75 5.66044 4.7888 5.46539 4.86418 5.2834C4.93956 5.10141 5.05005 4.93605 5.18934 4.79676C5.32863 4.65747 5.49399 4.54698 5.67597 4.4716C5.85796 4.39622 6.05302 4.35742 6.25 4.35742Z" stroke="#A0A0A2" stroke-miterlimit="10" stroke-linecap="round" stroke-linejoin="round"/>
</svg>
