<svg width="7" height="12" viewBox="0 0 7 12" fill="none" xmlns="http://www.w3.org/2000/svg">
<path d="M5.99994 7.39854L3.4995 10.0246L0.999063 7.39854C0.88931 7.28354 0.740453 7.21894 0.585238 7.21894C0.430023 7.21894 0.281166 7.28354 0.171412 7.39854C0.0616588 7.51354 0 7.66952 0 7.83215C0 7.99479 0.0616588 8.15076 0.171412 8.26576L3.08568 11.3194C3.13986 11.3766 3.20432 11.422 3.27535 11.453C3.34638 11.484 3.42256 11.5 3.4995 11.5C3.57645 11.5 3.65263 11.484 3.72365 11.453C3.79468 11.422 3.85914 11.3766 3.91333 11.3194L6.82759 8.26576C6.88194 8.20882 6.92505 8.14122 6.95446 8.06682C6.98387 7.99242 6.999 7.91268 6.999 7.83215C6.999 7.75162 6.98387 7.67188 6.95446 7.59749C6.92505 7.52309 6.88194 7.45549 6.82759 7.39854C6.77325 7.3416 6.70873 7.29643 6.63773 7.26561C6.56672 7.2348 6.49062 7.21894 6.41377 7.21894C6.33691 7.21894 6.26081 7.2348 6.18981 7.26561C6.1188 7.29643 6.05429 7.3416 5.99994 7.39854ZM0.999063 4.60146L3.4995 1.97537L5.99994 4.60146C6.05413 4.6587 6.11859 4.70413 6.18962 4.73514C6.26064 4.76614 6.33682 4.78211 6.41377 4.78211C6.49071 4.78211 6.56689 4.76614 6.63792 4.73514C6.70894 4.70413 6.77341 4.6587 6.82759 4.60146C6.88222 4.54468 6.92558 4.47714 6.95517 4.40271C6.98477 4.32829 7 4.24847 7 4.16785C7 4.08723 6.98477 4.0074 6.95517 3.93298C6.92558 3.85856 6.88222 3.79101 6.82759 3.73424L3.91333 0.680649C3.85914 0.623408 3.79468 0.577974 3.72365 0.546968C3.65263 0.515963 3.57645 0.5 3.4995 0.5C3.42256 0.5 3.34638 0.515963 3.27535 0.546968C3.20432 0.577974 3.13986 0.623408 3.08568 0.680649L0.171412 3.73424C0.117068 3.79118 0.0739597 3.85878 0.0445487 3.93318C0.0151378 4.00758 0 4.08732 0 4.16785C0 4.33048 0.0616588 4.48646 0.171412 4.60146C0.281166 4.71646 0.430023 4.78106 0.585238 4.78106C0.740453 4.78106 0.88931 4.71646 0.999063 4.60146Z" fill="#4A4A4A"/>
</svg>
