<svg width="76" height="22" viewBox="0 0 76 22" fill="inherit" xmlns="http://www.w3.org/2000/svg">
    <path
        d="M60.9915 10.8366L75.3843 0.356496C75.5693 0.220697 75.4138 -0.0666442 75.1992 0.014048L54.0559 7.95535C54.0107 7.97306 53.9614 7.97306 53.9182 7.95535L32.7669 0.0357063C32.5524 -0.0449859 32.3969 0.244325 32.5819 0.380124L41.9954 7.21928C42.1489 7.33146 42.0702 7.57551 41.8793 7.57551H40.1375C39.7675 7.57551 39.3955 7.69359 39.0294 7.92385C38.8248 8.05375 38.6457 8.20136 38.4922 8.36865C38.3957 8.47493 38.2206 8.44147 38.1694 8.30764C37.9982 7.86088 37.5652 7.57551 37.0043 7.57551H33.0779C32.7079 7.57551 32.3359 7.69359 31.9679 7.92779C31.9069 7.96716 31.8518 8.00849 31.7967 8.05179C31.5802 7.75657 31.2161 7.57551 30.7713 7.57551H19.7755C19.7046 7.57551 19.6318 7.5814 19.559 7.59124C19.4291 7.60896 19.315 7.49285 19.3406 7.36492C19.3681 7.22125 19.3838 7.07561 19.3838 6.92407C19.3838 6.59539 19.313 6.31002 19.1772 6.08368L17.0103 2.40136C16.8155 2.05104 16.4809 1.85226 16.0951 1.85226C15.7606 1.85226 15.2804 1.99396 14.8907 2.67099L12.2947 7.17401C12.2259 7.28816 12.1275 7.3846 11.9917 7.47119C11.8421 7.56566 11.7574 7.57747 11.7299 7.57747H6.23298C5.86298 7.57747 5.49101 7.69556 5.12297 7.92976C4.78052 8.14822 4.50893 8.42179 4.30818 8.75637L0.240109 15.816C0.0806925 16.0797 0 16.3473 0 16.6111C0 17.3058 0.51171 17.7919 1.24581 17.7919H12.2416C12.6116 17.7919 12.9836 17.6738 13.3516 17.4396C13.4146 17.4003 13.4756 17.357 13.5327 17.3117C13.6212 17.2428 13.7433 17.2645 13.8122 17.3511C14.0306 17.6266 14.3829 17.7919 14.81 17.7919H25.8058C26.162 17.7919 26.53 17.6758 26.9 17.4436C26.965 17.4022 27.026 17.357 27.085 17.3137C27.3015 17.6109 27.6656 17.7919 28.1104 17.7919H32.0289C32.3851 17.7919 32.7551 17.6738 33.1251 17.4396C33.3357 17.3058 33.5188 17.1523 33.6723 16.9791L34.0069 17.0401C34.1702 17.4967 34.6012 17.79 35.1641 17.79H37.2896C37.4806 17.79 37.5593 18.034 37.4058 18.1462L32.6016 21.6435C32.4166 21.7793 32.5721 22.0666 32.7866 21.986L53.93 14.0447C53.9752 14.0269 54.0244 14.0269 54.0677 14.0447L75.2189 21.9643C75.4334 22.045 75.5889 21.7557 75.4039 21.6199L60.9994 11.1555C60.8911 11.0768 60.8911 10.9154 60.9994 10.8366H60.9915ZM42.8515 14.1746C42.6803 14.3005 42.4579 14.1017 42.5661 13.9167L42.8377 13.4464C42.9755 13.1885 43.0463 12.9307 43.0463 12.6808C43.0463 12.5548 43.0286 12.4348 42.9971 12.3226C42.9696 12.2301 43.009 12.1317 43.0955 12.0903C43.1881 12.047 43.2786 11.9959 43.3691 11.9368C43.7116 11.7184 43.9832 11.4448 44.1859 11.1082L45.0814 9.54557C45.0951 9.52392 45.103 9.50228 45.1148 9.48063L46.9885 10.8426C47.0967 10.9213 47.0967 11.0827 46.9885 11.1614L42.8515 14.1726V14.1746Z"
        fill="#F4F4F4" />
    <path
        d="M18.6005 6.92228C18.6005 6.73727 18.567 6.58967 18.5021 6.48142L16.3253 2.78335C16.2702 2.68494 16.1935 2.63574 16.097 2.63574C15.912 2.63574 15.7369 2.77745 15.5735 3.06086L12.9697 7.57569C12.8379 7.79415 12.6529 7.97914 12.4147 8.13265C12.1766 8.28616 11.9463 8.36293 11.7278 8.36293H6.23093C6.01247 8.36293 5.78417 8.43968 5.54406 8.59122C5.30395 8.74474 5.11895 8.92974 4.98709 9.1482L0.913116 16.2157C0.826519 16.3574 0.78125 16.4892 0.78125 16.6093C0.78125 16.871 0.934765 17.0029 1.23982 17.0029H12.2356C12.4541 17.0029 12.6824 16.9261 12.9225 16.7746C13.1626 16.6231 13.3476 16.4361 13.4795 16.2176L18.4036 7.67605C18.5355 7.44775 18.6005 7.19584 18.6005 6.92425V6.92228ZM11.592 9.92953L8.43914 15.4304C8.30728 15.6488 8.12228 15.8338 7.88217 15.9874C7.64206 16.1409 7.41376 16.2157 7.1953 16.2157C6.89024 16.2157 6.73673 16.0858 6.73673 15.8279C6.73673 15.7099 6.78593 15.58 6.88434 15.4402L10.0372 9.93937C10.1671 9.71894 10.3502 9.53198 10.5883 9.37847C10.8265 9.22495 11.0528 9.1482 11.2693 9.1482C11.5743 9.1482 11.7278 9.27809 11.7278 9.53985C11.7278 9.65991 11.6826 9.7898 11.592 9.9315V9.92953Z"
        fill="#070707" />
    <path
        d="M31.232 8.75493C31.232 8.49317 31.0785 8.36328 30.7734 8.36328H19.7777C19.571 8.36328 19.3447 8.44003 19.0987 8.59158C18.8526 8.74509 18.6696 8.93009 18.5515 9.14855L14.4618 16.216C14.385 16.3577 14.3477 16.4896 14.3477 16.6096C14.3477 16.8714 14.5012 17.0032 14.8062 17.0032H25.802C26.0087 17.0032 26.235 16.9265 26.481 16.775C26.727 16.6234 26.9081 16.4364 27.0301 16.218L31.1198 9.15052C31.1966 9.00882 31.234 8.87892 31.234 8.7569L31.232 8.75493ZM25.1604 9.93382L21.9859 15.4307C21.8658 15.6492 21.6828 15.8342 21.4368 15.9877C21.1907 16.1412 20.9605 16.216 20.742 16.216C20.4468 16.216 20.3012 16.0861 20.3012 15.8244C20.3012 15.7043 20.3405 15.5744 20.4173 15.4327L23.5918 9.93579C23.7119 9.71733 23.8949 9.53233 24.139 9.37882C24.383 9.22531 24.6152 9.14855 24.8337 9.14855C25.1289 9.14855 25.2746 9.28042 25.2746 9.54217C25.2746 9.66223 25.2372 9.79212 25.1604 9.93382Z"
        fill="#070707" />
    <path
        d="M39.772 16.773C40.0121 16.6215 40.1971 16.4345 40.3289 16.216L42.1455 13.0749C42.2223 12.9332 42.2596 12.8033 42.2596 12.6813C42.2596 12.4196 42.1061 12.2877 41.8011 12.2877H37.8747C37.4811 12.2877 37.2863 12.1952 37.2863 12.0102C37.2863 11.8468 37.4339 11.715 37.7271 11.6166C37.9456 11.5398 38.1463 11.5024 38.3333 11.5024H42.2596C42.4781 11.5024 42.7064 11.4257 42.9465 11.2741C43.1866 11.1206 43.3716 10.9356 43.5035 10.7171L44.4029 9.1466C44.4895 9.0049 44.5348 8.875 44.5348 8.75298C44.5348 8.49122 44.3813 8.36133 44.0762 8.36133H40.142C39.9235 8.36133 39.6932 8.43808 39.4531 8.58962C39.213 8.74117 39.0261 8.92617 38.8962 9.14266L38.4533 9.92793C38.3234 10.1484 38.1384 10.3353 37.9003 10.4888C37.6622 10.6424 37.4339 10.7191 37.2193 10.7191C36.9143 10.7191 36.7608 10.5872 36.7608 10.3255C36.7608 10.2054 36.8041 10.0755 36.8926 9.93187L37.3335 9.1466C37.4201 9.0049 37.4654 8.875 37.4654 8.75298C37.4654 8.49122 37.3118 8.36133 37.0068 8.36133H33.0804C32.862 8.36133 32.6337 8.43808 32.3935 8.58962C32.1534 8.74313 31.9684 8.92814 31.8366 9.1466L30.9372 10.7171C30.8604 10.8588 30.823 10.9907 30.823 11.1088C30.823 11.3706 30.9706 11.5024 31.2639 11.5024H35.1902C35.5838 11.5024 35.7787 11.5949 35.7787 11.7799C35.7787 11.9433 35.637 12.0751 35.3536 12.1735C35.1351 12.2503 34.9285 12.2877 34.7317 12.2877H30.821C30.6026 12.2877 30.3743 12.3644 30.1342 12.516C29.8941 12.6695 29.7091 12.8545 29.5772 13.073L27.7606 16.2141C27.6839 16.3558 27.6465 16.4876 27.6465 16.6077C27.6465 16.8694 27.798 17.0013 28.1031 17.0013H32.0216C32.2282 17.0013 32.4546 16.9245 32.6986 16.771C32.9427 16.6175 33.1257 16.4306 33.2457 16.2101L34.6214 13.8543C34.7415 13.6378 34.9226 13.4528 35.1646 13.3013C35.4067 13.1497 35.637 13.073 35.8554 13.073C36.1507 13.073 36.3002 13.2048 36.3002 13.4666C36.3002 13.5866 36.2628 13.7185 36.1861 13.8582L34.8281 16.2141C34.7513 16.3558 34.7139 16.4876 34.7139 16.6077C34.7139 16.8694 34.8615 17.0013 35.1548 17.0013H39.0812C39.2996 17.0013 39.5279 16.9245 39.768 16.773H39.772Z"
        fill="#070707" />
    <path
        d="M59.4348 10.996L71.4087 2.2793L53.9891 8.82127L36.5635 2.29702L48.5453 11.0019L36.5733 19.7187L53.991 13.1767L71.4186 19.7009L59.4348 10.996Z"
        fill="#070707" />
</svg>