<svg width="17" height="17" viewBox="0 0 17 17" fill="none" xmlns="http://www.w3.org/2000/svg">
<path d="M8.16699 10.333C9.27156 10.333 10.167 9.43758 10.167 8.33301C10.167 7.22844 9.27156 6.33301 8.16699 6.33301C7.06242 6.33301 6.16699 7.22844 6.16699 8.33301C6.16699 9.43758 7.06242 10.333 8.16699 10.333Z" stroke="#5B5B5D" stroke-width="1.33333" stroke-linecap="round" stroke-linejoin="round"/>
<path d="M13.1002 10.3333C13.0114 10.5344 12.9849 10.7575 13.0242 10.9737C13.0634 11.19 13.1665 11.3895 13.3202 11.5467L13.3602 11.5867C13.4841 11.7105 13.5825 11.8575 13.6496 12.0194C13.7167 12.1813 13.7512 12.3548 13.7512 12.53C13.7512 12.7052 13.7167 12.8787 13.6496 13.0406C13.5825 13.2025 13.4841 13.3495 13.3602 13.4733C13.2363 13.5973 13.0893 13.6956 12.9274 13.7627C12.7656 13.8298 12.5921 13.8644 12.4168 13.8644C12.2416 13.8644 12.0681 13.8298 11.9062 13.7627C11.7444 13.6956 11.5973 13.5973 11.4735 13.4733L11.4335 13.4333C11.2764 13.2796 11.0768 13.1765 10.8606 13.1373C10.6443 13.0981 10.4212 13.1246 10.2202 13.2133C10.023 13.2978 9.85482 13.4382 9.73637 13.617C9.61792 13.7959 9.55435 14.0055 9.5535 14.22V14.3333C9.5535 14.687 9.41302 15.0261 9.16297 15.2761C8.91292 15.5262 8.57378 15.6667 8.22016 15.6667C7.86654 15.6667 7.5274 15.5262 7.27735 15.2761C7.02731 15.0261 6.88683 14.687 6.88683 14.3333V14.2733C6.88167 14.0527 6.81024 13.8387 6.68184 13.6591C6.55343 13.4796 6.37399 13.3429 6.16683 13.2667C5.96575 13.1779 5.7427 13.1515 5.52644 13.1907C5.31017 13.2299 5.11062 13.333 4.9535 13.4867L4.9135 13.5267C4.78967 13.6506 4.64261 13.749 4.48075 13.8161C4.31889 13.8832 4.14538 13.9177 3.97016 13.9177C3.79494 13.9177 3.62144 13.8832 3.45958 13.8161C3.29771 13.749 3.15066 13.6506 3.02683 13.5267C2.90286 13.4028 2.80452 13.2558 2.73742 13.0939C2.67032 12.9321 2.63578 12.7586 2.63578 12.5833C2.63578 12.4081 2.67032 12.2346 2.73742 12.0727C2.80452 11.9109 2.90286 11.7638 3.02683 11.64L3.06683 11.6C3.22052 11.4429 3.32362 11.2433 3.36283 11.0271C3.40205 10.8108 3.37557 10.5877 3.28683 10.3867C3.20232 10.1895 3.062 10.0213 2.88314 9.90287C2.70428 9.78442 2.49469 9.72086 2.28016 9.72H2.16683C1.81321 9.72 1.47407 9.57952 1.22402 9.32948C0.973972 9.07943 0.833496 8.74029 0.833496 8.38667C0.833496 8.03304 0.973972 7.69391 1.22402 7.44386C1.47407 7.19381 1.81321 7.05333 2.16683 7.05333H2.22683C2.44749 7.04817 2.6615 6.97675 2.84103 6.84834C3.02056 6.71994 3.15731 6.54049 3.2335 6.33333C3.32224 6.13226 3.34871 5.9092 3.3095 5.69294C3.27029 5.47668 3.16719 5.27712 3.0135 5.12L2.9735 5.08C2.84953 4.95617 2.75118 4.80912 2.68408 4.64725C2.61698 4.48539 2.58245 4.31189 2.58245 4.13667C2.58245 3.96145 2.61698 3.78794 2.68408 3.62608C2.75118 3.46422 2.84953 3.31716 2.9735 3.19333C3.09733 3.06936 3.24438 2.97102 3.40624 2.90392C3.56811 2.83682 3.74161 2.80228 3.91683 2.80228C4.09205 2.80228 4.26555 2.83682 4.42742 2.90392C4.58928 2.97102 4.73633 3.06936 4.86016 3.19333L4.90016 3.23333C5.05728 3.38702 5.25684 3.49012 5.4731 3.52934C5.68937 3.56855 5.91242 3.54208 6.1135 3.45333H6.16683C6.36401 3.36882 6.53217 3.2285 6.65062 3.04964C6.76908 2.87078 6.83264 2.66119 6.8335 2.44667V2.33333C6.8335 1.97971 6.97397 1.64057 7.22402 1.39052C7.47407 1.14048 7.81321 1 8.16683 1C8.52045 1 8.85959 1.14048 9.10964 1.39052C9.35969 1.64057 9.50016 1.97971 9.50016 2.33333V2.39333C9.50102 2.60786 9.56458 2.81745 9.68303 2.99631C9.80148 3.17517 9.96965 3.31549 10.1668 3.4C10.3679 3.48874 10.591 3.51522 10.8072 3.476C11.0235 3.43679 11.223 3.33369 11.3802 3.18L11.4202 3.14C11.544 3.01603 11.691 2.91769 11.8529 2.85059C12.0148 2.78349 12.1883 2.74895 12.3635 2.74895C12.5387 2.74895 12.7122 2.78349 12.8741 2.85059C13.0359 2.91769 13.183 3.01603 13.3068 3.14C13.4308 3.26383 13.5291 3.41088 13.5962 3.57275C13.6633 3.73461 13.6979 3.90811 13.6979 4.08333C13.6979 4.25855 13.6633 4.43206 13.5962 4.59392C13.5291 4.75578 13.4308 4.90284 13.3068 5.02667L13.2668 5.06667C13.1131 5.22379 13.01 5.42334 12.9708 5.63961C12.9316 5.85587 12.9581 6.07892 13.0468 6.28V6.33333C13.1313 6.53051 13.2717 6.69868 13.4505 6.81713C13.6294 6.93558 13.839 6.99914 14.0535 7H14.1668C14.5205 7 14.8596 7.14048 15.1096 7.39052C15.3597 7.64057 15.5002 7.97971 15.5002 8.33333C15.5002 8.68696 15.3597 9.02609 15.1096 9.27614C14.8596 9.52619 14.5205 9.66667 14.1668 9.66667H14.1068C13.8923 9.66752 13.6827 9.73109 13.5039 9.84954C13.325 9.96799 13.1847 10.1362 13.1002 10.3333Z" stroke="#5B5B5D" stroke-width="1.33333" stroke-linecap="round" stroke-linejoin="round"/>
</svg>
