<svg width="12" height="13" viewBox="0 0 12 13" fill="none" xmlns="http://www.w3.org/2000/svg">
<path fill-rule="evenodd" clip-rule="evenodd" d="M6 11.167C8.48527 11.167 10.5 9.15227 10.5 6.66699C10.5 4.18171 8.48527 2.16699 6 2.16699C3.51472 2.16699 1.5 4.18171 1.5 6.66699C1.5 9.15227 3.51472 11.167 6 11.167ZM6 11.917C8.8995 11.917 11.25 9.56649 11.25 6.66699C11.25 3.7675 8.8995 1.41699 6 1.41699C3.10051 1.41699 0.75 3.7675 0.75 6.66699C0.75 9.56649 3.10051 11.917 6 11.917Z" fill="#4A4A4A"/>
<path fill-rule="evenodd" clip-rule="evenodd" d="M6.375 5.91699V8.91699H5.625V5.91699H6.375Z" fill="#4A4A4A"/>
<path fill-rule="evenodd" clip-rule="evenodd" d="M6.375 4.41699V5.16699H5.625V4.41699H6.375Z" fill="#4A4A4A"/>
</svg>
