<svg width="11" height="10" viewBox="0 0 11 10" fill="none" xmlns="http://www.w3.org/2000/svg">
<path d="M9.35 2.22222H8.8V1.66667C8.8 1.22464 8.62616 0.800716 8.31673 0.488155C8.00729 0.175595 7.58761 0 7.15 0H1.65C1.21239 0 0.792709 0.175595 0.483274 0.488155C0.173839 0.800716 0 1.22464 0 1.66667V8.33333C0 8.77536 0.173839 9.19928 0.483274 9.51185C0.792709 9.82441 1.21239 10 1.65 10H9.35C9.78761 10 10.2073 9.82441 10.5167 9.51185C10.8262 9.19928 11 8.77536 11 8.33333V3.88889C11 3.44686 10.8262 3.02294 10.5167 2.71038C10.2073 2.39782 9.78761 2.22222 9.35 2.22222ZM1.65 1.11111H7.15C7.29587 1.11111 7.43576 1.16964 7.53891 1.27383C7.64205 1.37802 7.7 1.51932 7.7 1.66667V2.22222H1.65C1.50413 2.22222 1.36424 2.16369 1.26109 2.0595C1.15795 1.95532 1.1 1.81401 1.1 1.66667C1.1 1.51932 1.15795 1.37802 1.26109 1.27383C1.36424 1.16964 1.50413 1.11111 1.65 1.11111ZM9.9 6.66667H9.35C9.20413 6.66667 9.06424 6.60814 8.96109 6.50395C8.85795 6.39976 8.8 6.25845 8.8 6.11111C8.8 5.96377 8.85795 5.82246 8.96109 5.71827C9.06424 5.61409 9.20413 5.55556 9.35 5.55556H9.9V6.66667ZM9.9 4.44444H9.35C8.91239 4.44444 8.49271 4.62004 8.18327 4.9326C7.87384 5.24516 7.7 5.66908 7.7 6.11111C7.7 6.55314 7.87384 6.97706 8.18327 7.28962C8.49271 7.60218 8.91239 7.77778 9.35 7.77778H9.9V8.33333C9.9 8.48068 9.84205 8.62198 9.73891 8.72617C9.63576 8.83036 9.49587 8.88889 9.35 8.88889H1.65C1.50413 8.88889 1.36424 8.83036 1.26109 8.72617C1.15795 8.62198 1.1 8.48068 1.1 8.33333V3.23889C1.2767 3.30168 1.46269 3.33361 1.65 3.33333H9.35C9.49587 3.33333 9.63576 3.39187 9.73891 3.49605C9.84205 3.60024 9.9 3.74155 9.9 3.88889V4.44444Z" fill="#4A4A4A"/>
</svg>
