<svg width="13" height="20" viewBox="0 0 13 20" fill="none" xmlns="http://www.w3.org/2000/svg">
<path d="M5.51988 19.9891C5.43388 20.0036 5.34595 20.0036 5.25995 19.9891C5.0724 19.934 4.90848 19.8207 4.79314 19.6665C4.67779 19.5123 4.61734 19.3257 4.62098 19.135V19.019L5.59569 12.3234H0.89542C0.736914 12.3236 0.581407 12.2814 0.445827 12.2014C0.310248 12.1215 0.199791 12.0069 0.126483 11.87C0.043661 11.7326 0 11.576 0 11.4166C0 11.2572 0.043661 11.1007 0.126483 10.9632L2.2925 7.28332L6.73285 0.408508C6.83152 0.246297 6.9838 0.121472 7.16478 0.0544373C7.34576 -0.0125974 7.54475 -0.0178773 7.72922 0.0394608C7.91677 0.094581 8.08069 0.207846 8.19603 0.362021C8.31138 0.516195 8.37183 0.702836 8.36819 0.893541V1.00953L7.39348 7.70509H12.1046C12.2631 7.70495 12.4186 7.74715 12.5542 7.8271C12.6898 7.90704 12.8002 8.02166 12.8735 8.15849C12.9563 8.29598 13 8.45249 13 8.61189C13 8.77128 12.9563 8.9278 12.8735 9.06529L10.7075 12.7452L6.26715 19.62C6.18555 19.7388 6.07396 19.8351 5.94309 19.8997C5.81223 19.9643 5.66648 19.9951 5.51988 19.9891ZM2.09756 10.6996H6.4296C6.54907 10.701 6.66709 10.7253 6.77693 10.7711C6.88676 10.8169 6.98625 10.8833 7.06973 10.9665C7.1532 11.0497 7.21901 11.1481 7.26342 11.2561C7.30782 11.3641 7.32993 11.4796 7.3285 11.5959V11.7119L6.68953 16.0772L9.39705 11.8595L10.9566 9.24454H6.62455C6.50508 9.24317 6.38705 9.21889 6.27722 9.1731C6.16739 9.12731 6.0679 9.06091 5.98442 8.97768C5.90095 8.89446 5.83514 8.79604 5.79073 8.68804C5.74633 8.58005 5.72422 8.4646 5.72565 8.34828V8.2323L6.36462 3.867L3.6571 8.08468L2.09756 10.6996Z" fill="url(#paint0_linear_3446_2988)"/>
<defs>
<linearGradient id="paint0_linear_3446_2988" x1="6.5" y1="0" x2="6.5" y2="20" gradientUnits="userSpaceOnUse">
<stop stop-color="#FAFAFA"/>
<stop offset="1" stop-color="#9DF09C"/>
</linearGradient>
</defs>
</svg>
